<?xml version="1.0" encoding="utf-8"?>
<svg version="1.1" xmlns="http://www.w3.org/2000/svg" width="1024" height="1024" xmlns:bx="https://boxy-svg.com" viewBox="0 0 1024 1024"><defs><bx:export><bx:file format="svg"/></bx:export></defs><path d="M 0 0 C 1.603 0.646 114.005 48.456 121.327 51.544 C 127.461 54.131 133.602 56.698 139.75 59.25 C 139.75 60.24 139.75 61.23 139.75 62.25 C 138.862 62.688 137.974 63.127 137.059 63.578 C 128.496 67.822 74.695 96.447 67.063 100.563 C 65.928 101.173 30.221 120.767 23.942 124.368 C 21.232 125.911 18.718 127.261 15.75 128.25 C 18.124 129.522 20.5 130.792 22.875 132.063 C 23.54 132.419 24.205 132.775 24.891 133.143 C 26.215 133.85 27.542 134.552 28.872 135.249 C 30.56 136.149 32.216 137.108 33.867 138.074 C 37.448 139.535 39.013 139.148 42.75 138.25 C 45.941 136.854 45.941 136.854 49.195 135.039 C 49.799 134.715 50.402 134.391 51.024 134.057 C 52.979 133.005 54.927 131.94 56.875 130.875 C 58.229 130.143 59.583 129.411 60.938 128.68 C 64.276 126.875 67.608 125.06 70.938 123.24 C 72.585 122.34 74.233 121.443 75.882 120.546 C 85.191 115.48 94.448 110.333 103.609 105.004 C 105.891 103.73 108.157 102.534 110.496 101.379 C 115.432 98.939 120.24 96.279 125.063 93.625 C 133.103 89.218 141.169 84.87 149.306 80.645 C 154.491 77.947 159.552 75.093 164.523 72.016 C 167.586 70.963 168.825 71.973 171.75 73.25 C 173.337 73.856 174.926 74.457 176.516 75.055 C 177.406 75.391 178.297 75.728 179.215 76.074 C 181.055 76.769 182.896 77.461 184.738 78.152 C 192.726 81.175 200.456 84.626 208.188 88.25 C 212.827 90.397 217.487 92.402 222.246 94.266 C 230.526 97.521 238.675 101.08 246.818 104.659 C 252.763 107.268 258.749 109.772 264.75 112.25 C 266.688 113.062 268.625 113.875 270.563 114.688 C 273.883 116.075 277.211 117.438 280.559 118.758 C 281.533 119.143 281.533 119.143 282.528 119.536 C 283.834 120.05 285.142 120.562 286.451 121.07 C 289.866 122.415 292.989 123.914 296.125 125.813 C 300.409 127.511 301.837 127.286 305.965 125.59 C 312.27 122.557 318.534 119.461 324.75 116.25 C 318.237 113.237 311.684 110.369 305.051 107.633 C 301.265 106.047 297.507 104.403 293.75 102.75 C 287.117 99.834 280.45 97.011 273.75 94.25 C 266.403 91.223 259.102 88.107 251.827 84.913 C 241.259 80.275 230.66 75.743 219.914 71.53 C 217.879 70.731 215.846 69.928 213.813 69.125 C 213.161 68.871 212.509 68.617 211.838 68.355 C 208.892 67.189 206.4 66.017 203.75 64.25 C 201.52 63.466 199.27 62.8 197.004 62.129 C 194.548 61.171 192.783 59.912 190.75 58.25 C 198.194 53.764 205.698 49.695 213.523 45.926 C 216.773 44.238 219.717 42.295 222.75 40.25 C 224.442 39.516 226.135 38.783 227.844 38.09 C 229.999 37.14 232.012 36.034 234.063 34.875 C 237.322 33.034 240.601 31.261 243.938 29.563 C 244.715 29.167 245.492 28.771 246.293 28.363 C 251.201 26.139 255.439 25 260.84 24.983 C 262.637 24.97 262.637 24.97 264.472 24.957 C 265.773 24.958 366.558 24.787 370.499 24.766 C 374.208 24.746 377.917 24.746 381.626 24.761 C 383.625 24.764 385.623 24.747 387.622 24.73 C 396.223 24.79 402.029 26.371 409.313 30.813 C 411.867 32.417 411.867 32.417 415.41 33.598 C 419.642 35.158 423.615 37.068 427.625 39.125 C 429.023 39.836 430.422 40.547 431.82 41.258 C 432.826 41.771 432.826 41.771 433.853 42.294 C 437.117 43.939 440.424 45.496 443.734 47.047 C 446.334 48.599 447.872 49.831 449.75 52.25 C 450.184 55.253 450.382 57.884 450.387 60.891 C 450.398 61.732 450.409 62.573 450.42 63.439 C 450.436 65.218 450.441 66.996 450.436 68.775 C 450.437 71.478 450.497 74.176 450.561 76.879 C 450.708 91.326 450.708 91.326 446.457 96.422 C 444.01 98.687 191.185 227.45 184.686 230.447 C 180.918 232.194 177.274 234.02 173.688 236.125 C 165.749 240.603 159.528 240.669 150.75 238.25 C 145.114 236.402 139.998 233.917 134.813 231.063 C 129.018 227.927 -127.735 97.796 -128.5 97.563 C -131.808 95.984 -133.199 94.254 -135.25 91.25 C -137.022 85.935 -136.476 80.193 -136.49 74.626 C -136.5 72.39 -136.531 70.154 -136.562 67.918 C -136.569 66.49 -136.574 65.061 -136.578 63.633 C -136.587 62.337 -136.597 61.042 -136.606 59.708 C -136.097 54.768 -134.532 52.419 -130.904 49.111 C -128.265 47.261 -125.701 45.848 -122.785 44.48 C -121.745 43.988 -120.704 43.495 -119.632 42.987 C -118.537 42.476 -117.441 41.964 -116.312 41.438 C -114.046 40.365 -54.06 11.177 -49.5 8.875 C -47.792 8.022 -46.085 7.169 -44.376 6.317 C -42.757 5.504 -41.141 4.685 -39.526 3.862 C -36.463 2.307 -33.389 0.778 -30.312 -0.75 C -29.329 -1.256 -28.345 -1.762 -27.331 -2.283 C -16.831 -7.443 -10.35 -4.258 0 0 Z" fill="#026B62" transform="translate(355.25,498.75)"/><path d="M 0 0 C 0.904 -0.007 1.808 -0.014 2.74 -0.021 C 3.724 -0.019 80.472 -0.108 82.847 -0.118 C 86.172 -0.13 89.496 -0.123 92.821 -0.112 C 93.799 -0.119 94.778 -0.127 95.786 -0.135 C 101.415 -0.092 105.61 0.285 110.466 3.261 C 113.178 7.644 113.845 10.981 113.865 16.094 C 113.871 16.757 113.878 17.42 113.885 18.102 C 113.903 20.309 113.901 22.515 113.898 24.721 C 113.907 26.308 113.918 27.895 113.929 29.482 C 113.957 33.781 113.966 38.08 113.972 42.38 C 113.981 46.876 114.008 51.372 114.032 55.869 C 114.076 64.379 114.104 72.889 114.127 81.399 C 114.154 91.09 114.198 100.78 114.244 110.471 C 114.337 130.401 114.408 150.331 114.466 170.261 C 117.808 171.375 120.325 171.392 123.846 171.403 C 125.164 171.41 126.483 171.417 127.842 171.424 C 128.546 171.426 163.174 171.626 167.022 171.668 C 168.485 171.68 169.947 171.685 171.409 171.683 C 185.732 171.667 185.732 171.667 191.466 176.261 C 195.012 180.564 195.916 184.427 195.997 189.952 C 194.714 195.527 190.296 199.68 186.365 203.604 C 185.623 204.349 185.623 204.349 184.866 205.11 C 183.242 206.737 181.612 208.356 179.982 209.976 C 178.84 211.116 177.699 212.256 176.559 213.397 C 174.171 215.783 171.78 218.166 169.387 220.546 C 166.338 223.578 163.296 226.616 160.256 229.657 C 157.9 232.012 155.542 234.365 153.183 236.717 C 152.061 237.835 150.94 238.954 149.82 240.074 C 148.244 241.648 146.664 243.218 145.084 244.788 C 144.19 245.678 143.296 246.568 142.375 247.485 C 140.176 249.627 137.891 251.647 135.568 253.654 C 131.612 257.089 127.895 260.71 124.211 264.434 C 123.535 265.113 122.86 265.791 122.163 266.491 C 120.711 267.95 119.26 269.411 117.809 270.873 C 115.512 273.187 113.212 275.498 110.91 277.808 C 104.372 284.371 97.839 290.939 91.311 297.512 C 87.305 301.544 83.295 305.571 79.282 309.596 C 77.757 311.127 76.234 312.659 74.714 314.194 C 72.591 316.336 70.463 318.471 68.332 320.605 C 67.708 321.238 67.084 321.871 66.442 322.523 C 62.229 326.726 58.268 330.382 52.153 331.198 C 51.456 331.31 50.759 331.422 50.04 331.538 C 42.852 330.764 37.56 325.929 32.718 320.951 C 32.096 320.328 31.473 319.704 30.832 319.062 C 28.794 317.016 26.771 314.957 24.747 312.897 C 23.321 311.462 21.895 310.027 20.467 308.593 C 16.72 304.825 12.984 301.045 9.251 297.263 C 3.281 291.217 -2.708 285.19 -8.695 279.161 C -10.774 277.064 -12.849 274.963 -14.923 272.861 C -20.281 267.442 -25.597 262.079 -31.414 257.148 C -36.978 252.195 -42.145 246.792 -47.405 241.522 C -48.736 240.192 -50.068 238.861 -51.399 237.531 C -54.174 234.758 -56.946 231.984 -59.717 229.208 C -63.274 225.645 -66.835 222.088 -70.397 218.531 C -73.14 215.792 -75.88 213.051 -78.62 210.309 C -79.933 208.995 -81.247 207.682 -82.561 206.37 C -84.39 204.544 -86.215 202.715 -88.04 200.884 C -88.585 200.342 -89.129 199.799 -89.691 199.239 C -93.3 195.61 -94.704 193.737 -94.909 188.636 C -94.854 183.161 -93.281 179.267 -89.534 175.261 C -85.45 172.27 -82.466 171.873 -77.449 171.828 C -76.409 171.813 -76.409 171.813 -75.348 171.797 C -73.07 171.767 -21.866 171.316 -13.534 171.261 C -13.539 170.432 -13.543 169.604 -13.548 168.75 C -13.658 148.586 -13.741 128.421 -13.793 108.257 C -13.819 98.505 -13.854 88.754 -13.911 79.003 C -13.961 70.503 -13.993 62.003 -14.004 53.503 C -14.011 49.002 -14.026 44.503 -14.063 40.003 C -14.097 35.765 -14.107 31.527 -14.1 27.289 C -14.101 25.736 -14.111 24.183 -14.13 22.63 C -14.285 9.445 -14.285 9.445 -11.249 4.907 C -7.591 1.342 -5.098 0.013 0 0 Z" fill="#027973" transform="translate(461.5340118408203,129.7393035888672)"/><path d="M 0 0 C 2.738 1.161 5.291 2.595 7.875 4.063 C 13.669 7.247 19.491 10.242 25.5 13 C 32.019 16.009 38.374 19.252 44.7 22.647 C 50.025 25.5 55.405 28.222 60.82 30.899 C 67.089 34.013 73.273 37.283 79.443 40.588 C 82.762 42.354 86.041 44.018 89.5 45.5 C 93.78 47.334 97.835 49.49 101.938 51.688 C 113.052 57.583 124.252 63.242 135.631 68.61 C 144.257 72.679 152.762 76.903 161.18 81.386 C 168.078 85.058 175.049 88.566 182.053 92.032 C 184.023 93.012 185.989 94 187.953 94.992 C 194.694 98.392 201.463 101.7 208.313 104.875 C 215.315 108.128 222.148 111.651 228.964 115.278 C 234.789 118.375 240.645 121.397 246.572 124.295 C 249.338 125.648 252.043 127.026 254.688 128.605 C 261.782 132.771 268.905 133.05 277 132 C 281.898 130.173 286.528 127.799 291.188 125.438 C 292.596 124.728 294.005 124.018 295.414 123.309 C 296.156 122.935 296.897 122.561 297.661 122.175 C 300.091 120.954 302.525 119.744 304.961 118.535 C 312.55 114.766 320.116 110.981 327.563 106.938 C 333.038 103.968 338.605 101.258 344.25 98.625 C 354.007 94.067 486.132 26.018 492.623 23.02 C 498.413 20.325 504.048 17.385 509.676 14.366 C 516.425 10.75 523.258 7.315 530.127 3.933 C 531.465 3.266 532.797 2.589 534.125 1.903 C 534.829 1.542 535.533 1.181 536.258 0.809 C 536.895 0.478 537.532 0.147 538.188 -0.194 C 541.439 -1.641 543.49 -1.595 547 -1 C 553.896 1.957 559.552 5.105 563 12 C 563.285 17.028 563.314 22.057 563.35 27.092 C 563.367 28.77 563.394 30.448 563.432 32.125 C 563.82 49.194 563.82 49.194 559.417 54.668 C 557.368 56.593 436.459 122.25 428.727 126.502 C 424.98 128.56 421.226 130.607 417.472 132.652 C 411.107 136.123 404.823 139.665 398.652 143.473 C 396.568 144.673 394.498 145.765 392.344 146.828 C 387.336 149.302 307.438 192.512 305.798 193.361 C 301.312 195.702 296.998 198.201 292.73 200.92 C 290.772 202.142 288.773 203.199 286.688 204.188 C 284.268 205.341 282.256 206.496 280 208 C 266.399 211.163 256.042 205.911 244.375 199.313 C 242.456 198.245 240.537 197.179 238.617 196.113 C 237.675 195.588 236.732 195.063 235.761 194.522 C 231.034 191.916 226.249 189.421 221.455 186.943 C 218.524 185.411 215.788 183.856 213.047 181.992 C 209.426 179.624 205.687 177.897 201.75 176.125 C 196.193 173.568 190.903 170.883 185.715 167.629 C 181.408 165.045 176.951 162.75 172.502 160.422 C 167.619 157.867 162.774 155.248 157.939 152.602 C 153.837 150.366 149.719 148.16 145.602 145.952 C 136.588 141.117 127.597 136.256 118.709 131.194 C 112.856 127.879 106.899 124.774 100.935 121.666 C 96.123 119.148 91.381 116.544 86.688 113.813 C 82.072 111.135 77.413 108.658 72.625 106.313 C 69.007 104.536 65.493 102.778 62.125 100.563 C 57.691 97.658 52.93 95.412 48.161 93.117 C 44.485 91.327 40.963 89.406 37.477 87.27 C 30.574 83.068 23.401 79.379 16.25 75.625 C 6.06 70.273 -4.114 64.903 -14 59 C -15.039 58.408 -16.077 57.816 -17.147 57.206 C -21.056 54.183 -23.468 50.892 -24.362 46.034 C -24.525 43.895 -24.555 41.797 -24.531 39.652 C -24.535 38.877 -24.539 38.102 -24.543 37.304 C -24.546 35.676 -24.538 34.048 -24.521 32.421 C -24.5 29.94 -24.521 27.463 -24.547 24.982 C -24.544 23.393 -24.539 21.804 -24.531 20.215 C -24.539 19.48 -24.547 18.746 -24.556 17.989 C -24.463 12.865 -23.236 9.941 -20 6 C -17.273 4.137 -17.273 4.137 -14.375 2.688 C -13.413 2.196 -12.452 1.705 -11.461 1.199 C -10.649 0.803 -9.837 0.408 -9 0 C -5.804 -1.598 -3.447 -0.728 0 0 Z" fill="#026B62" transform="translate(243,627)"/><path d="M0 0 C1.60294922 0.64582031 1.60294922 0.64582031 3.23828125 1.3046875 C10.15856051 4.11316049 16.97511386 7.10828913 23.75 10.25 C25.29880859 10.96349609 25.29880859 10.96349609 26.87890625 11.69140625 C27.68199219 12.06136719 28.48507812 12.43132812 29.3125 12.8125 C33.55927193 14.74339772 37.84438398 16.52313734 42.18359375 18.234375 C50.91929164 21.69142439 59.5181634 25.4437593 68.08007812 29.30761719 C72.71914419 31.38999617 77.39720509 33.33115851 82.125 35.20288086 C86.83465291 37.08157332 91.50892012 39.04549689 96.1875 41 C97.22938477 41.43465576 98.27126953 41.86931152 99.34472656 42.31713867 C106.6781308 45.37869499 114.00487651 48.45587007 121.32714844 51.54394531 C127.46068556 54.13057 133.60213215 56.69759179 139.75 59.25 C139.75 60.24 139.75 61.23 139.75 62.25 C138.86183594 62.68828125 137.97367187 63.1265625 137.05859375 63.578125 C128.49553885 67.82197501 119.98402601 72.16282992 111.5 76.5625 C110.50025146 77.07780273 109.50050293 77.59310547 108.47045898 78.12402344 C107.05422241 78.86120605 107.05422241 78.86120605 105.609375 79.61328125 C104.76858398 80.04938721 103.92779297 80.48549316 103.06152344 80.93481445 C100.80005284 82.22152148 98.81775668 83.6767885 96.75 85.25 C94.55382732 86.3942002 92.3557112 87.49048835 90.125 88.5625 C82.33772584 92.37795536 74.69499787 96.44735308 67.0625 100.5625 C65.92796387 101.17327393 64.79342773 101.78404785 63.62451172 102.41333008 C58.94258394 104.9435619 54.30856653 107.50320789 49.75 110.25 C47.48438873 111.46973225 45.2150591 112.6781026 42.9375 113.875 C38.723841 116.09418322 34.54256856 118.35002536 30.421875 120.73828125 C29.35996948 121.35098877 29.35996948 121.35098877 28.27661133 121.97607422 C26.91516552 122.76554414 25.55797273 123.56240881 24.20581055 124.36767578 C20.38717402 126.57600837 17.19758064 128.1849423 12.75 128.25 C9.69140625 126.984375 9.69140625 126.984375 6.3125 125 C4.99241487 124.2502011 3.66928328 123.50574976 2.34375 122.765625 C1.61800781 122.36021484 0.89226562 121.95480469 0.14453125 121.53710938 C-4.38217752 119.1039111 -9.04090398 116.94274571 -13.6875 114.75 C-22.93626292 110.36540685 -32.11558488 105.86718742 -41.25 101.25 C-43.85277522 99.93471857 -46.45671809 98.62181547 -49.0625 97.3125 C-49.71605469 96.98411133 -50.36960937 96.65572266 -51.04296875 96.31738281 C-56.21931816 93.7317209 -61.44725985 91.26550234 -66.6875 88.8125 C-73.51791423 85.61149544 -80.1972367 82.2051774 -86.83569336 78.62524414 C-92.83773343 75.41193218 -98.963812 72.51115285 -105.13549805 69.64038086 C-111.42367871 66.69495646 -117.55981168 63.51285212 -123.64453125 60.16796875 C-127.4366166 58.10639854 -131.08737495 56.48265331 -135.25 55.25 C-133.0112801 49.55144026 -128.10708017 46.97697503 -122.78515625 44.48046875 C-121.74464111 43.98764404 -120.70412598 43.49481934 -119.63208008 42.98706055 C-118.53661865 42.47570557 -117.44115723 41.96435059 -116.3125 41.4375 C-114.04649256 40.36539128 -111.78086448 39.29248037 -109.515625 38.21875 C-108.42958984 37.70570313 -107.34355469 37.19265625 -106.22460938 36.6640625 C-100.51972499 33.95208857 -94.88534287 31.10324809 -89.25 28.25 C-80.64665138 23.89711528 -71.99221825 19.68953855 -63.26977539 15.58203125 C-58.65029459 13.40185433 -54.06037041 11.17721598 -49.5 8.875 C-47.79230398 8.02216246 -46.0845797 7.16938117 -44.37646484 6.31738281 C-42.75687845 5.50442854 -41.14060809 4.68486435 -39.52587891 3.86230469 C-36.46323346 2.30735428 -33.38888225 0.77756625 -30.3125 -0.75 C-29.32862305 -1.2557959 -28.34474609 -1.7615918 -27.33105469 -2.28271484 C-16.83057573 -7.44326796 -10.35041393 -4.25831536 0 0 Z " fill="#3B9F7D" transform="translate(355.25,498.75)"/><path d="M0 0 C1.58695673 0.6057313 3.1755457 1.20720121 4.765625 1.8046875 C5.65636719 2.14113281 6.54710937 2.47757813 7.46484375 2.82421875 C9.30535705 3.51860596 11.14649319 4.2113448 12.98828125 4.90234375 C20.97610648 7.92507473 28.70647286 11.37577326 36.4375 15 C41.07694795 17.14749389 45.73678021 19.15162419 50.49609375 21.015625 C58.77553526 24.27056925 66.92505603 27.82975013 75.06787109 31.40893555 C81.01340603 34.01766165 86.99880094 36.52213866 93 39 C94.93756048 39.81235575 96.87505936 40.62485845 98.8125 41.4375 C102.13297061 42.82502911 105.46069729 44.18810576 108.80859375 45.5078125 C115.35004545 48.08663846 121.77962427 50.69939247 128 54 C126.66663792 58.00008623 124.3060801 58.7569928 120.75 60.5625 C120.09322266 60.90474609 119.43644531 61.24699219 118.75976562 61.59960938 C112.18156386 64.98874743 105.48199009 68.12671248 98.78686523 71.27636719 C92.15351259 74.40973999 85.67226104 77.75805222 79.2265625 81.2578125 C74.86833326 83.61104524 70.44285614 85.81228669 66 88 C64.37447343 88.811446 62.74948478 89.62397038 61.125 90.4375 C57.41666667 92.29166667 53.70833333 94.14583333 50 96 C48.98550781 96.50789062 47.97101563 97.01578125 46.92578125 97.5390625 C45.13362872 98.4339424 43.33975531 99.32539881 41.54296875 100.2109375 C36.47680052 102.714616 31.47996066 105.33028572 26.5 108 C-8.0011354 126.47983959 -8.0011354 126.47983959 -23.04101562 122.45361328 C-27.89682899 120.73294549 -32.44909424 118.39647029 -37 116 C-37.6923877 115.64164063 -38.38477539 115.28328125 -39.09814453 114.9140625 C-42.6748749 113.05952246 -46.23214364 111.17188007 -49.77734375 109.2578125 C-55.78245373 106.02545958 -61.89650126 103.01430653 -68.00732422 99.98828125 C-71.38426932 98.31346212 -74.75415325 96.62454866 -78.125 94.9375 C-79.4596339 94.2708303 -80.7942693 93.6041636 -82.12890625 92.9375 C-84.61866182 91.69293212 -87.1055815 90.44299474 -89.58984375 89.1875 C-95.49675086 86.2107909 -101.42711842 83.32200299 -107.4375 80.5625 C-115.13116422 77.02669698 -122.57081264 73.05707395 -130 69 C-125.63937241 62.55173414 -119.74877049 59.80633875 -112.9375 56.3125 C-111.17806822 55.38819812 -109.41864213 54.46388404 -107.66012573 53.5378418 C-105.89424613 52.60942629 -104.12559312 51.68629224 -102.35693359 50.76318359 C-97.62173589 48.27608557 -92.93172926 45.71100179 -88.25 43.125 C-87.44264404 42.6805957 -86.63528809 42.23619141 -85.8034668 41.77832031 C-79.8749868 38.50667538 -73.99372769 35.15841196 -68.140625 31.75390625 C-65.85941022 30.47994427 -63.59336673 29.28378884 -61.25390625 28.12890625 C-56.31848477 25.68936439 -51.5099642 23.02908847 -46.6875 20.375 C-38.6474951 15.96786613 -30.58093623 11.62009242 -22.44360352 7.39501953 C-17.25889981 4.69726039 -12.19844343 1.84268486 -7.2265625 -1.234375 C-4.16416721 -2.28740917 -2.92451444 -1.27668886 0 0 Z " fill="#3B9F7E" transform="translate(527,572)"/><path d="M 0 0 C 2.316 1.328 2.316 1.328 4.563 3.25 C 5.417 3.976 6.272 4.701 7.152 5.449 C 11.466 9.314 15.733 13.225 19.965 17.18 C 22.94 19.956 25.979 22.65 29.066 25.301 C 30.476 26.539 31.855 27.813 33.215 29.105 C 45.515 40.769 45.515 40.769 61.125 46.063 C 71.695 45.164 80.102 36.31 87.82 29.688 C 90 28 97.117 21.295 100 19 C 101.004 18.004 102.004 17.004 103 16 C 104.876 14.328 106.779 12.69 108.688 11.055 C 110.337 9.589 111.937 8.066 113.5 6.508 C 120.068 0.08 120.068 0.08 124.625 -0.312 C 128.583 1.227 132.271 2.977 136 5 C 140.8 7.491 145.568 9.886 150.625 11.813 C 154.968 13.5 159.103 15.51 163.25 17.625 C 169.753 20.939 176.342 24.01 183 27 C 190.143 30.21 197.189 33.543 204.164 37.102 C 209.04 39.569 213.994 41.811 219 44 C 228.624 48.21 237.964 52.911 247.313 57.695 C 253.433 60.802 259.574 63.583 266 66 C 266 66.33 266 66.66 266 67 C 265.413 67.003 264.826 67.007 264.222 67.01 C 249.897 67.092 235.573 67.184 221.248 67.288 C 214.321 67.337 207.393 67.384 200.466 67.422 C 193.774 67.459 187.083 67.505 180.392 67.558 C 177.845 67.577 175.298 67.592 172.751 67.603 C 169.171 67.62 165.591 67.649 162.011 67.681 C 160.448 67.684 160.448 67.684 158.855 67.688 C 148.279 67.807 138.667 68.868 129.438 74.25 C 128.711 74.654 127.985 75.058 127.237 75.474 C 125.799 76.276 124.365 77.084 122.935 77.9 C 120.417 79.331 117.865 80.696 115.313 82.063 C 111.803 83.982 108.329 85.958 104.865 87.959 C 98.992 91.35 93.06 94.521 86.953 97.477 C 82.737 99.651 78.767 102.197 74.789 104.777 C 70.567 106.628 67.965 105.763 63.757 104.129 C 61.026 102.982 58.325 101.78 55.625 100.563 C 53.57 99.652 51.514 98.743 49.457 97.836 C 48.397 97.368 47.337 96.899 46.245 96.417 C 40.961 94.109 35.639 91.895 30.313 89.688 C 29.359 89.292 28.405 88.896 27.422 88.489 C 25.56 87.716 23.697 86.945 21.833 86.174 C 13.797 82.845 5.769 79.495 -2.25 76.125 C -3.056 75.786 -3.863 75.447 -4.694 75.098 C -11.129 72.386 -17.522 69.587 -23.898 66.738 C -27.243 65.284 -30.637 63.984 -34.047 62.691 C -41.416 59.878 -48.647 56.778 -55.875 53.625 C -56.529 53.341 -57.182 53.057 -57.856 52.764 C -67.307 48.657 -76.718 44.478 -86 40 C -82.691 37.312 -79.121 35.428 -75.312 33.563 C -74.631 33.225 -73.95 32.888 -73.248 32.541 C -58.889 25.468 -44.432 18.591 -29.932 11.812 C -22.552 8.347 -15.275 4.679 -8 1 C -5.177 -0.412 -3.13 -0.263 0 0 Z" fill="#3A9F7D" transform="translate(450,440)"/><path d="M 0 0 C 2.738 1.161 5.291 2.595 7.875 4.063 C 13.669 7.247 240.645 121.397 246.572 124.295 C 249.338 125.648 252.043 127.026 254.688 128.605 C 261.782 132.771 268.905 133.05 277 132 C 281.898 130.173 286.528 127.799 291.188 125.438 C 292.596 124.728 294.005 124.018 295.414 123.309 C 296.156 122.935 393.403 73.277 403.875 68.392 C 411.927 64.613 523.258 7.315 530.127 3.933 C 531.465 3.266 532.797 2.589 534.125 1.903 C 534.829 1.542 542.385 -2.531 543.11 -2.903 C 543.747 -3.234 550.141 -0.408 556.933 3.938 C 564.115 11.749 561.419 12.442 550.292 18.44 C 549.165 19.047 525.746 30.588 524.584 31.213 C 519.103 34.122 519.103 34.122 513.947 37.548 C 511.87 39.097 408.195 95.002 396.766 100.586 C 393.529 102.241 294.186 155.012 289.063 158.125 C 280.438 163.225 271.743 164.261 261.793 162.641 C 255.903 160.974 250.708 157.673 245.449 154.623 C 239.702 151.311 13.154 31.52 7.796 28.882 C 2.611 26.326 -2.481 23.623 -7.547 20.836 C -12.646 18.125 -23.406 10.107 -20 6 C -17.273 4.137 -17.273 4.137 -14.375 2.688 C -13.413 2.196 -12.452 1.705 -11.461 1.199 C -10.649 0.803 -9.837 0.408 -9 0 C -5.804 -1.598 -3.447 -0.728 0 0 Z" fill="#028F8A" transform="translate(243,627)"/><path d="M 0 0 C 1.798 -0.013 1.798 -0.013 3.632 -0.026 C 4.933 -0.025 6.235 -0.024 7.575 -0.023 C 8.971 -0.029 10.366 -0.036 11.761 -0.043 C 15.54 -0.061 19.319 -0.066 23.098 -0.067 C 25.462 -0.069 27.827 -0.073 30.191 -0.078 C 38.449 -0.097 46.707 -0.105 54.965 -0.103 C 62.647 -0.102 70.329 -0.123 78.011 -0.155 C 84.619 -0.181 91.227 -0.192 97.836 -0.19 C 101.777 -0.19 105.718 -0.195 109.659 -0.217 C 113.368 -0.236 117.077 -0.236 120.787 -0.222 C 122.785 -0.219 124.784 -0.235 126.782 -0.252 C 135.384 -0.193 141.189 1.389 148.473 5.83 C 151.028 7.435 151.028 7.435 154.57 8.615 C 158.802 10.175 162.776 12.085 166.785 14.142 C 168.183 14.855 169.582 15.567 170.981 16.279 C 171.651 16.621 172.322 16.963 173.013 17.316 C 175.537 18.582 178.102 19.759 180.66 20.955 C 184.367 22.79 186.665 24.696 188.91 28.267 C 186.264 31.174 183.52 32.371 179.91 33.896 C 175.199 36.05 170.668 38.539 166.115 41.006 C 161.785 43.336 157.444 45.368 152.91 47.267 C 145.742 50.68 138.742 54.41 131.751 58.169 C 126.607 60.924 121.401 63.54 116.171 66.126 C 110.889 68.75 105.678 71.496 100.473 74.267 C 92.383 78.565 84.176 82.546 75.841 86.345 C 74.474 86.998 73.127 87.692 71.795 88.415 C 71.1 88.79 70.404 89.166 69.688 89.553 C 69.065 89.902 68.442 90.251 67.801 90.611 C 63.921 91.958 60.454 89.87 56.91 88.267 C 55.934 87.876 54.959 87.484 53.953 87.08 C 48.802 85.007 43.807 82.759 38.871 80.221 C 35.941 78.796 32.913 77.651 29.879 76.467 C 26.188 74.976 22.551 73.375 18.91 71.767 C 14.601 69.867 10.296 67.986 5.91 66.267 C 0.208 64.029 -5.382 61.534 -10.988 59.068 C -20.895 54.712 -30.849 50.498 -40.926 46.548 C -42.961 45.749 -44.994 44.946 -47.027 44.142 C -48.005 43.762 -48.005 43.762 -49.002 43.373 C -51.948 42.207 -54.44 41.034 -57.09 39.267 C -59.32 38.483 -61.57 37.817 -63.836 37.146 C -66.292 36.189 -68.057 34.93 -70.09 33.267 C -62.645 28.782 -20.238 6.278 -16.902 4.58 C -15.736 3.986 -15.736 3.986 -14.547 3.381 C -9.638 1.157 -5.401 0.017 0 0 Z" fill="#3A9F7D" transform="translate(616.0897979736328,523.7325744628906)"/><path d="M0 0 C0.66 0.33 1.32 0.66 2 1 C-1 3 -1 3 -4 3 C-4.33 3.99 -4.66 4.98 -5 6 C-5.99 5.34 -6.98 4.68 -8 4 C-6.71349294 3.30289269 -5.42059335 2.61757124 -4.125 1.9375 C-3.40570313 1.55464844 -2.68640625 1.17179688 -1.9453125 0.77734375 C-1.30335938 0.52082031 -0.66140625 0.26429688 0 0 Z " fill="#21916A" transform="translate(244,538)"/></svg>